<?xml version="1.0" encoding="UTF-8" standalone="no"?>
<!DOCTYPE svg PUBLIC "-//W3C//DTD SVG 1.1//EN" "http://www.w3.org/Graphics/SVG/1.1/DTD/svg11.dtd">
<svg xmlns="http://www.w3.org/2000/svg" xmlns:xlink="http://www.w3.org/1999/xlink" version="1.1" width="863.67489pt" height="399.67439pt" viewBox="0 0 863.67489 399.67439">
<g enable-background="new">
<clipPath id="cp0">
<path transform="matrix(1,0,0,-1,-23.85223,475.1141)" d="M 0 .00001206994 L 959.76 .00001206994 L 959.76 540 L 0 540 Z "/>
</clipPath>
<g clip-path="url(#cp0)">
<path transform="matrix(1,0,0,-1,-23.85223,475.1141)" d="M 0 540 L 959.76 540 L 959.76 .00001206994 L 0 .00001206994 Z " fill="#ffffff"/>
</g>
<path transform="matrix(1,0,0,-1,-23.85223,475.1141)" d="M 0 540 L 960 540 L 960 .0000140816 L 0 .0000140816 Z " fill="#ffffff"/>
<text fill="#002060" xml:space="preserve" transform="matrix(.24 0 -0 .24 6.5896608 799.8341)" font-size="1333.333" font-family="Arial" font-weight="bold"><tspan y="-2250" x="0">t</tspan></text>
<text fill="#002060" xml:space="preserve" transform="matrix(.24 0 -0 .24 111.71466 799.8341)" font-size="1333.333" font-family="Arial" font-weight="bold"><tspan y="-2250" x="0">s</tspan></text>
<text fill="#c034ff" xml:space="preserve" transform="matrix(.24 0 -0 .24 288.21467 799.8341)" font-size="1333.333" font-family="Arial" font-weight="bold"><tspan y="-2250" x="0 735.46658">ai</tspan></text>
<text fill="#ff9300" xml:space="preserve" transform="matrix(.24 0 -0 .24 6.5896608 875.6741)" font-size="200" font-family="Arial"><tspan y="-2250" x="0 134.9 236 381.9 483">state</tspan></text>
<text fill="#ff9300" xml:space="preserve" transform="matrix(.24 0 -0 .24 157.46466 875.6741)" font-size="200" font-family="Arial"><tspan y="-2250" x="0">-</tspan></text>
<text fill="#ff9300" xml:space="preserve" transform="matrix(.24 0 -0 .24 176.46466 875.6741)" font-size="200" font-family="Arial"><tspan y="-2250" x="0 145.84001">of</tspan></text>
<text fill="#ff9300" xml:space="preserve" transform="matrix(.24 0 -0 .24 233.08966 875.6741)" font-size="200" font-family="Arial"><tspan y="-2250" x="0">-</tspan></text>
<text fill="#ff9300" xml:space="preserve" transform="matrix(.24 0 -0 .24 252.08966 875.6741)" font-size="200" font-family="Arial"><tspan y="-2250" x="0 101.04001 246.88002">the</tspan></text>
<text fill="#ff9300" xml:space="preserve" transform="matrix(.24 0 -0 .24 346.33967 875.6741)" font-size="200" font-family="Arial"><tspan y="-2250" x="0">-</tspan></text>
<text fill="#ff9300" xml:space="preserve" transform="matrix(.24 0 -0 .24 365.33967 875.6741)" font-size="200" font-family="Arial"><tspan y="-2250" x="0 145.84001 246.88002">art</tspan></text>
<text fill="#ff9300" xml:space="preserve" transform="matrix(.24 0 -0 .24 467.83958 875.6741)" font-size="200" font-family="Arial"><tspan y="-2250" x="0 145.84001 291.68003 437.52003">deep</tspan></text>
<text fill="#ff9300" xml:space="preserve" transform="matrix(.24 0 -0 .24 626.83956 875.6741)" font-size="200" font-family="Arial"><tspan y="-2250" x="0 79.159999 224.92 370.68 471.64 617.4 696.56 842.32">learning</tspan></text>
<text fill="#ff9300" xml:space="preserve" transform="matrix(.24 0 -0 .24 6.5896608 925.5941)" font-size="200" font-family="Arial"><tspan y="-2250" x="0 86.78001 229.36">for</tspan></text>
<text fill="#ff9300" xml:space="preserve" transform="matrix(.24 0 -0 .24 103.26466 925.5941)" font-size="200" font-family="Arial"><tspan y="-2250" x="0 97.700008 173.6 382.7">time</tspan></text>
<text fill="#ff9300" xml:space="preserve" transform="matrix(.24 0 -0 .24 247.51468 925.5941)" font-size="200" font-family="Arial"><tspan y="-2250" x="0 131.56 274.12 371.88 447.63999 590.2">series</tspan></text>
<text fill="#ff9300" xml:space="preserve" transform="matrix(.24 0 -0 .24 438.91468 925.5941)" font-size="200" font-family="Arial"><tspan y="-2250" x="0 142.5 285">and</tspan></text>
<text fill="#ff9300" xml:space="preserve" transform="matrix(.24 0 -0 .24 559.71456 925.5941)" font-size="200" font-family="Arial"><tspan y="-2250" x="0 131.56 274.12 416.68 559.24 701.8 844.36 986.92 1129.48">sequences</tspan></text>
<clipPath id="cp1">
<path transform="matrix(1,0,0,-1,-23.85223,475.1141)" d="M 620.88 210 L 865.92 210 L 865.92 455.03999 L 620.88 455.03999 Z "/>
</clipPath>
<g clip-path="url(#cp1)">
<path transform="matrix(.00007874016,0,0,.00007874016,603.2715,218.0224)" stroke-width="50800" stroke-linecap="round" stroke-linejoin="round" fill="none" stroke="#ff9300" d="M 0 399944 L 155401 342032 L 310849 404437 L 466297 378608 L 621745 335936 L 777193 338984 L 932641 326792 L 1088089 244496 L 1240489 159152 L 1395937 207920 L 1551385 220112 L 1706833 232304 L 1862281 214016 L 2017729 253640 L 2173177 165248 L 2328625 183536 L 2484073 79904 L 2639521 58568 L 2794969 40280 L 2949370 0 "/>
</g>
<clipPath id="cp2">
<path transform="matrix(1,0,0,-1,-23.85223,475.1141)" d="M 620.88 210 L 865.92 210 L 865.92 455.03999 L 620.88 455.03999 Z "/>
</clipPath>
<g clip-path="url(#cp2)">
<path transform="matrix(.00007874016,0,0,.00007874016,603.2715,172.03272)" stroke-width="50800" stroke-linecap="round" stroke-linejoin="round" fill="none" stroke="#002060" d="M 0 788942 L 155401 697502 L 310849 807125 L 466297 743222 L 621745 694454 L 777193 688358 L 932641 673118 L 1088089 548150 L 1240489 420134 L 1395937 505478 L 1551385 496334 L 1706833 539006 L 1862281 484142 L 2017729 539006 L 2173177 374414 L 2328625 359174 L 2484073 154958 L 2639521 103142 L 2794969 45230 L 2949370 0 "/>
</g>
<clipPath id="cp3">
<path transform="matrix(1,0,0,-1,-23.85223,475.1141)" d="M 620.88 210 L 865.92 210 L 865.92 455.03999 L 620.88 455.03999 Z "/>
</clipPath>
<g clip-path="url(#cp3)">
<path transform="matrix(.00007874016,0,0,.00007874016,603.2715,97.1922)" stroke-width="50800" stroke-linecap="round" stroke-linejoin="round" fill="none" stroke="#e7e6e6" d="M 0 1544344 L 155401 1401088 L 310849 1569666 L 466297 1477288 L 621745 1431568 L 777193 1407184 L 932641 1361464 L 1088089 1166392 L 1240489 959128 L 1395937 1038376 L 1551385 1029232 L 1706833 1056664 L 1862281 937792 L 2017729 1004848 L 2173177 754912 L 2328625 706144 L 2484073 358672 L 2639521 218464 L 2794969 127024 L 2949370 0 "/>
</g>
<clipPath id="cp4">
<path transform="matrix(1,0,0,-1,-23.85223,475.1141)" d="M 620.88 210 L 865.92 210 L 865.92 455.03999 L 620.88 455.03999 Z "/>
</clipPath>
<g clip-path="url(#cp4)">
<path transform="matrix(.00007874016,0,0,.00007874016,603.2715,56.533998)" stroke-width="50800" stroke-linecap="round" stroke-linejoin="round" fill="none" stroke="#c034ff" d="M 0 1868679 L 155401 1694943 L 310849 1899746 L 466297 1761999 L 621745 1722375 L 777193 1701039 L 932641 1667511 L 1088089 1426719 L 1240489 1161543 L 1395937 1283463 L 1551385 1283463 L 1706833 1338327 L 1862281 1207263 L 2017729 1265175 L 2173177 942087 L 2328625 862839 L 2484073 472695 L 2639521 259335 L 2794969 131319 L 2949370 0 "/>
</g>
<path transform="matrix(.00007874016,0,0,.00007874016,586.1601,9.248199)" stroke-width="76200" stroke-linecap="butt" stroke-linejoin="round" fill="none" stroke="#002060" d="M 0 0 L 3383999 0 L 3383999 3383999 L 0 3383999 Z "/>
</g>
</svg>
